# xmcd CD database file
#
# Track frame offsets:
#	150
#	10585
#	32808
#	48993
#	72233
#	80208
#	98330
#	118370
#	131123
#	147355
#
# Disc length: 2181 seconds
#
# Revision: 0
# Processed by: cddbd v1.4PL0 Copyright (c) Steve Scherf et al.
# Submitted via: CDex 1.50beta10
#
DISCID=8908830a
DTITLE=Michael Bloomfield - Living in the Fast Lane
DYEAR=1980
DGENRE=Blues
TTITLE0=Sammy Knows How to Party
TTITLE1=Shine on Love
TTITLE2=Roots
TTITLE3=Let Them Talk
TTITLE4=Watkin's Rag
TTITLE5=Andy's Bad
TTITLE6=When I Get Home
TTITLE7=Used to It
TTITLE8=Big C Blues
TTITLE9=The Dizz Rag
EXTD=YEAR: 1980
EXTT0=
EXTT1=
EXTT2=
EXTT3=
EXTT4=
EXTT5=
EXTT6=
EXTT7=
EXTT8=
EXTT9=
PLAYORDER=
